# xmcd
#
# Track frame offsets: 
#        150
#        13301
#        28768
#        39405
#        49877
#        63364
#        75201
#        87036
#        97862
#        112099
#        124556
#        136745
#        149931
#        161689
#        174163
#        188447
#        201412
#        215665
#        228317
#        242748
#        257513
#        273060
#        288399
#        302017
#
# Disc length: 4238 seconds
#
# Revision: 0
# Processed by: cddbd v1.5.2PL0 Copyright (c) Steve Scherf et al.
# Submitted via: ExactAudioCopyFreeDBPlugin 1.0
#
DISCID=47108c18
DTITLE=Various Artist - Blue Girls Vol. 2 (1928-1930)
DYEAR=1996
DGENRE=Blues
TTITLE0=Katherine C. McDavid - Underground Blues
TTITLE1=Katherine C. McDavid - Sweet Woman Blues
TTITLE2=Margaret Thornton - Texas Bound Blues
TTITLE3=Margaret Thornton - Jockey Blues
TTITLE4=Mozelle Alderson - Mozelle Blues
TTITLE5=Mozelle Alderson - Sobbin' the Blues
TTITLE6=Mozelle Alderson - Room Rent Blues
TTITLE7=Mozelle Alderson - State Street Special
TTITLE8=Mozelle Alderson - Mobile Central Blues
TTITLE9=Mozelle Alderson - Tall Man Blues
TTITLE10=Mozelle Alderson - Tight Whoopee
TTITLE11=Mozelle Alderson - Tight in Chicago
TTITLE12=Mary Dixon - Dusky Stevedore
TTITLE13=Mary Dixon - I Can't Give You Anything but Love
TTITLE14=Mary Dixon - You Can't Sleep in My Bed
TTITLE15=Mary Dixon - Daddy You Got Ev'rything
TTITLE16=Mary Dixon - Old Forsaken Blues
TTITLE17=Mary Dixon - All Around Mama
TTITLE18=Mary Dixon - Black Dog Blues
TTITLE19=Mary Dixon - Fire and Thunder Blues
TTITLE20=Mary Dixon - Daddy, You're a Low-Down Man
TTITLE21=Mary Dixon - Unhappy Blues
TTITLE22=Issie Ringgold - He's a Good Meat Cutter
TTITLE23=Issie Ringgold - Be on Your Merry Way
EXTD=
EXTT0=
EXTT1=
EXTT2=
EXTT3=
EXTT4=
EXTT5=
EXTT6=
EXTT7=
EXTT8=
EXTT9=
EXTT10=
EXTT11=
EXTT12=
EXTT13=
EXTT14=
EXTT15=
EXTT16=
EXTT17=
EXTT18=
EXTT19=
EXTT20=
EXTT21=
EXTT22=
EXTT23=
PLAYORDER=
